<?xml version="1.0" encoding="UTF-8"?>
<svg xmlns="http://www.w3.org/2000/svg" viewBox="0 0 512 512" width="512" height="512">
  <title>Japonica favicon</title>
  <rect width="512" height="512" rx="96" ry="96" fill="#EFE9DC"/>
  <path transform="translate(174.15,358.40) scale(0.4389,-0.4389)" d="M104 -16Q76 -16 52.0 -7.5Q28 1 13.0 17.0Q-2 33 -2 55Q-2 75 8.5 90.5Q19 106 41 107Q66 109 75.5 93.5Q85 78 85 63Q85 59 84.0 52.5Q83 46 81 41Q87 31 100.0 27.5Q113 24 120 25Q150 26 164.5 52.0Q179 78 179 139V571Q179 594 179.0 616.0Q179 638 179 660Q154 659 128.5 658.0Q103 657 77 656V700H343V667Q310 667 293.5 654.0Q277 641 271.5 618.5Q266 596 266 568V244Q266 103 228.0 43.5Q190 -16 104 -16Z" fill="#352A35"/>
</svg>
